<?xml version="1.0" encoding="UTF-8" standalone="no"?>
<!-- Created with Inkscape (http://www.inkscape.org/) -->

<svg
   xmlns:dc="http://purl.org/dc/elements/1.1/"
   xmlns:cc="http://creativecommons.org/ns#"
   xmlns:rdf="http://www.w3.org/1999/02/22-rdf-syntax-ns#"
   xmlns:svg="http://www.w3.org/2000/svg"
   xmlns="http://www.w3.org/2000/svg"
   xmlns:sodipodi="http://sodipodi.sourceforge.net/DTD/sodipodi-0.dtd"
   xmlns:inkscape="http://www.inkscape.org/namespaces/inkscape"
   width="156.12312"
   height="23.400036"
   viewBox="0 0 41.307576 6.1912596"
   version="1.1"
   id="svg8"
   inkscape:version="0.92.1 r"
   sodipodi:docname="logo.svg">
  <defs
     id="defs2" />
  <sodipodi:namedview
     id="base"
     pagecolor="#ffffff"
     bordercolor="#666666"
     borderopacity="1.0"
     inkscape:pageopacity="0.0"
     inkscape:pageshadow="2"
     inkscape:zoom="3.959798"
     inkscape:cx="68.285454"
     inkscape:cy="-7.2949283"
     inkscape:document-units="mm"
     inkscape:current-layer="text3683"
     showgrid="false"
     inkscape:window-width="2391"
     inkscape:window-height="1056"
     inkscape:window-x="2635"
     inkscape:window-y="67"
     inkscape:window-maximized="0"
     inkscape:pagecheckerboard="true"
     showborder="false"
     fit-margin-top="0.5"
     fit-margin-left="0.5"
     fit-margin-right="0.5"
     fit-margin-bottom="0.5"
     borderlayer="false"
     inkscape:showpageshadow="true"
     units="px" />
  <metadata
     id="metadata5">
    <rdf:RDF>
      <cc:Work
         rdf:about="">
        <dc:format>image/svg+xml</dc:format>
        <dc:type
           rdf:resource="http://purl.org/dc/dcmitype/StillImage" />
        <dc:title></dc:title>
      </cc:Work>
    </rdf:RDF>
  </metadata>
  <g
     inkscape:groupmode="layer"
     id="layer2"
     inkscape:label="text"
     style="display:inline"
     transform="translate(-0.63540263,-0.52033833)">
    <g
       aria-label="SootSafe"
       style="font-style:normal;font-weight:normal;font-size:10.58333302px;line-height:1.25;font-family:sans-serif;letter-spacing:0px;word-spacing:0px;fill:#000000;fill-opacity:1;stroke:none;stroke-width:0.2;stroke-miterlimit:4;stroke-dasharray:none"
       id="text3683"
       transform="translate(-3.674956,-13.363476)"
       inkscape:export-xdpi="96"
       inkscape:export-ydpi="96">
      <path
         d="m 9.7554835,15.434278 q 0,0.137583 -0.1375833,0.137583 -0.1481667,0 -0.1481667,-0.137583 0,-0.47625 -0.3280833,-0.804334 L 9.0358168,14.545278 Q 8.7394835,14.301861 8.3479002,14.301861 H 5.9243169 q -0.3915833,0 -0.6984999,0.243417 l -0.09525,0.08467 q -0.3280834,0.328084 -0.3280834,0.804334 0,0.433916 0.2116667,0.687916 0.22225,0.254 0.5715,0.41275 0.34925,0.148167 0.79375,0.22225 0.4550833,0.07408 0.9207499,0.137584 0.47625,0.0635 0.92075,0.148166 0.4550833,0.08467 0.8043333,0.264584 0.34925,0.169333 0.5609167,0.455083 0.22225,0.28575 0.22225,0.762 0,0.296333 -0.1164167,0.560917 -0.1058333,0.254 -0.3069167,0.4445 -0.1905,0.1905 -0.4445,0.306916 -0.2539999,0.105834 -0.5397499,0.105834 H 5.8502336 q -0.5820833,0 -0.9948333,-0.41275 l -0.03175,-0.04233 q -0.3598333,-0.381 -0.381,-0.910166 v -0.05292 q 0,-0.137583 0.1375833,-0.137583 0.1481667,0 0.1481667,0.137583 0,0.433917 0.2963333,0.762 l 0.03175,0.04233 q 0.3280834,0.328084 0.79375,0.328084 h 2.5505833 q 0.2328333,0 0.4339166,-0.08467 0.2010833,-0.09525 0.34925,-0.243417 0.15875,-0.15875 0.2434167,-0.359833 0.09525,-0.211667 0.09525,-0.4445 0,-0.508 -0.2645834,-0.762 -0.2645833,-0.254 -0.6455833,-0.370417 -0.381,-0.116416 -0.8043333,-0.15875 -0.4233333,-0.04233 -0.73025,-0.116416 Q 6.5381503,17.053527 6.0724836,16.947693 5.6068169,16.84186 5.257567,16.65136 q -0.34925,-0.1905 -0.5503334,-0.47625 -0.1905,-0.296333 -0.1905,-0.740833 0,-0.5715 0.41275,-1.005417 l 0.03175,-0.03175 q 0.41275,-0.381 0.9630833,-0.381 h 2.4235833 q 0.5503333,0 0.9630833,0.381 l 0.03175,0.03175 q 0.41275,0.41275 0.41275,0.994833 z"
         style="font-style:normal;font-variant:normal;font-weight:normal;font-stretch:normal;font-family:Trench;-inkscape-font-specification:Trench;stroke-width:0.2;stroke-miterlimit:4;stroke-dasharray:none"
         id="path4513"
         inkscape:connector-curvature="0" />
      <path
         d="m 13.661726,15.466028 q 0.370416,0 0.6985,0.148166 0.338666,0.148167 0.582083,0.402167 0.254,0.243417 0.402167,0.582083 0.148166,0.328084 0.148166,0.6985 v 0.814917 q 0,0.370417 -0.148166,0.709083 -0.148167,0.328084 -0.402167,0.582084 -0.243417,0.243416 -0.582083,0.391583 -0.328084,0.148167 -0.6985,0.148167 h -0.814917 q -0.370417,0 -0.709083,-0.148167 -0.328084,-0.148167 -0.582084,-0.391583 -0.243416,-0.254 -0.391583,-0.582084 -0.148166,-0.338666 -0.148166,-0.709083 v -0.814917 q 0,-0.370416 0.148166,-0.6985 0.148167,-0.338666 0.391583,-0.582083 0.254,-0.254 0.582084,-0.402167 0.338666,-0.148166 0.709083,-0.148166 z m -0.814917,0.28575 q -0.306917,0 -0.592667,0.127 -0.275166,0.116416 -0.486833,0.328083 -0.211667,0.201083 -0.338667,0.486833 -0.127,0.28575 -0.127,0.60325 v 0.814917 q 0,0.306917 0.116417,0.592667 0.127,0.275166 0.338667,0.486833 0.211666,0.211667 0.486833,0.338667 0.28575,0.127 0.60325,0.127 h 0.814917 q 0.3175,0 0.592666,-0.116417 0.28575,-0.127 0.497417,-0.338667 0.211667,-0.211666 0.328083,-0.486833 0.127,-0.28575 0.127,-0.60325 v -0.814917 q 0,-0.3175 -0.127,-0.592666 -0.127,-0.28575 -0.338666,-0.497417 -0.211667,-0.211667 -0.497417,-0.328083 -0.275167,-0.127 -0.582083,-0.127 z"
         style="font-style:normal;font-variant:normal;font-weight:normal;font-stretch:normal;font-family:Trench;-inkscape-font-specification:Trench;stroke-width:0.2;stroke-miterlimit:4;stroke-dasharray:none"
         id="path4515"
         inkscape:connector-curvature="0" />
      <path
         d="m 19.22211,15.466028 q 0.370416,0 0.6985,0.148166 0.338666,0.148167 0.582083,0.402167 0.254,0.243417 0.402167,0.582083 0.148166,0.328084 0.148166,0.6985 v 0.814917 q 0,0.370417 -0.148166,0.709083 -0.148167,0.328084 -0.402167,0.582084 -0.243417,0.243416 -0.582083,0.391583 -0.328084,0.148167 -0.6985,0.148167 h -0.814917 q -0.370417,0 -0.709083,-0.148167 -0.328084,-0.148167 -0.582084,-0.391583 -0.243416,-0.254 -0.391583,-0.582084 -0.148167,-0.338666 -0.148167,-0.709083 v -0.814917 q 0,-0.370416 0.148167,-0.6985 0.148167,-0.338666 0.391583,-0.582083 0.254,-0.254 0.582084,-0.402167 0.338666,-0.148166 0.709083,-0.148166 z m -0.814917,0.28575 q -0.306917,0 -0.592667,0.127 -0.275166,0.116416 -0.486833,0.328083 -0.211667,0.201083 -0.338667,0.486833 -0.127,0.28575 -0.127,0.60325 v 0.814917 q 0,0.306917 0.116417,0.592667 0.127,0.275166 0.338667,0.486833 0.211666,0.211667 0.486833,0.338667 0.28575,0.127 0.60325,0.127 h 0.814917 q 0.3175,0 0.592666,-0.116417 0.28575,-0.127 0.497417,-0.338667 0.211667,-0.211666 0.328083,-0.486833 0.127,-0.28575 0.127,-0.60325 v -0.814917 q 0,-0.3175 -0.127,-0.592666 -0.127,-0.28575 -0.338666,-0.497417 -0.211667,-0.211667 -0.497417,-0.328083 -0.275167,-0.127 -0.582083,-0.127 z"
         style="font-style:normal;font-variant:normal;font-weight:normal;font-stretch:normal;font-family:Trench;-inkscape-font-specification:Trench;stroke-width:0.2;stroke-miterlimit:4;stroke-dasharray:none"
         id="path4517"
         inkscape:connector-curvature="0" />
      <path
         d="m 22.42241,18.133028 q 0,0.3175 0.116417,0.592666 0.127,0.275167 0.328083,0.486834 0.211667,0.201083 0.486833,0.328083 0.275167,0.116417 0.592667,0.116417 h 0.402167 q 0.137583,0 0.137583,0.148166 0,0.137584 -0.137583,0.137584 H 23.94641 q -0.370417,0 -0.709083,-0.137584 -0.328084,-0.148166 -0.5715,-0.391583 -0.243417,-0.243417 -0.391584,-0.5715 -0.137583,-0.338667 -0.137583,-0.709083 v -3.96875 q 0,-0.137584 0.137583,-0.137584 0.148167,0 0.148167,0.137584 v 1.291166 h 1.820333 q 0.148167,0 0.148167,0.137584 0,0.148166 -0.148167,0.148166 H 22.42241 v 1.862667 z"
         style="font-style:normal;font-variant:normal;font-weight:normal;font-stretch:normal;font-family:Trench;-inkscape-font-specification:Trench;stroke-width:0.2;stroke-miterlimit:4;stroke-dasharray:none"
         id="path4519"
         inkscape:connector-curvature="0" />
      <path
         d="m 30.984161,15.434278 q 0,0.137583 -0.137583,0.137583 -0.148167,0 -0.148167,-0.137583 0,-0.47625 -0.328083,-0.804334 l -0.105833,-0.08467 q -0.296334,-0.243417 -0.687917,-0.243417 h -2.423583 q -0.391584,0 -0.6985,0.243417 l -0.09525,0.08467 q -0.328084,0.328084 -0.328084,0.804334 0,0.433916 0.211667,0.687916 0.22225,0.254 0.5715,0.41275 0.34925,0.148167 0.79375,0.22225 0.455083,0.07408 0.92075,0.137584 0.47625,0.0635 0.92075,0.148166 0.455083,0.08467 0.804333,0.264584 0.34925,0.169333 0.560917,0.455083 0.22225,0.28575 0.22225,0.762 0,0.296333 -0.116417,0.560917 -0.105833,0.254 -0.306916,0.4445 -0.1905,0.1905 -0.4445,0.306916 -0.254,0.105834 -0.53975,0.105834 h -2.550584 q -0.582083,0 -0.994833,-0.41275 l -0.03175,-0.04233 q -0.359833,-0.381 -0.381,-0.910166 v -0.05292 q 0,-0.137583 0.137583,-0.137583 0.148167,0 0.148167,0.137583 0,0.433917 0.296333,0.762 l 0.03175,0.04233 q 0.328084,0.328084 0.79375,0.328084 h 2.550584 q 0.232833,0 0.433916,-0.08467 0.201084,-0.09525 0.34925,-0.243417 0.15875,-0.15875 0.243417,-0.359833 0.09525,-0.211667 0.09525,-0.4445 0,-0.508 -0.264583,-0.762 -0.264584,-0.254 -0.645584,-0.370417 -0.381,-0.116416 -0.804333,-0.15875 -0.423333,-0.04233 -0.73025,-0.116416 -0.53975,-0.0635 -1.005417,-0.169334 -0.465666,-0.105833 -0.814916,-0.296333 -0.34925,-0.1905 -0.550334,-0.47625 -0.1905,-0.296333 -0.1905,-0.740833 0,-0.5715 0.41275,-1.005417 l 0.03175,-0.03175 q 0.41275,-0.381 0.963084,-0.381 h 2.423583 q 0.550333,0 0.963083,0.381 l 0.03175,0.03175 q 0.41275,0.41275 0.41275,0.994833 z"
         style="fill:#ee4b28;fill-opacity:1;stroke-width:0.2;stroke-miterlimit:4;stroke-dasharray:none"
         id="path4521"
         inkscape:connector-curvature="0" />
      <path
         d="m 34.636404,15.466028 q 0.370416,0 0.698499,0.148166 0.338667,0.137584 0.592667,0.391584 0.254,0.243416 0.402167,0.582083 0.148166,0.328083 0.148166,0.709083 v 0.814917 q 0,0.381 -0.148166,0.719667 -0.148167,0.328083 -0.402167,0.582083 -0.254,0.243417 -0.592667,0.391583 -0.328083,0.137584 -0.698499,0.137584 h -1.17475 q -0.296334,0 -0.560917,-0.105834 -0.254,-0.116416 -0.455083,-0.306916 -0.1905,-0.201084 -0.296334,-0.455084 -0.116416,-0.264583 -0.116416,-0.560916 0,-0.296334 0.116416,-0.550334 0.105834,-0.264583 0.296334,-0.455083 0.201083,-0.1905 0.455083,-0.296333 0.264583,-0.116417 0.560917,-0.116417 h 2.719916 l -0.04233,-0.169333 q -0.0635,-0.254 -0.211667,-0.465667 -0.137583,-0.22225 -0.338667,-0.370417 -0.201083,-0.15875 -0.444499,-0.243416 -0.243417,-0.09525 -0.508,-0.09525 h -1.87325 q -0.137584,0 -0.137584,-0.137584 0,-0.148166 0.137584,-0.148166 h 0.137583 z m 0,4.191 q 0.3175,0 0.603249,-0.127 0.28575,-0.127 0.486834,-0.338667 0.211666,-0.211667 0.328083,-0.486833 0.127,-0.28575 0.127,-0.592667 v -0.73025 h -2.719916 q -0.243417,0 -0.455084,0.09525 -0.201083,0.08467 -0.359833,0.243417 -0.148167,0.148166 -0.243417,0.359833 -0.08467,0.201083 -0.08467,0.433917 0,0.243416 0.08467,0.455083 0.09525,0.201083 0.243417,0.359833 0.15875,0.148167 0.359833,0.243417 0.211667,0.08467 0.455084,0.08467 h 0.635 z"
         style="fill:#ee4b28;fill-opacity:1;stroke-width:0.2;stroke-miterlimit:4;stroke-dasharray:none"
         id="path4523"
         inkscape:connector-curvature="0" />
      <path
         d="m 37.577576,15.836444 q 0,-0.370416 0.137583,-0.6985 0.148167,-0.328083 0.391584,-0.5715 0.243416,-0.254 0.5715,-0.391583 0.338666,-0.148167 0.709083,-0.148167 h 0.402167 q 0.137583,0 0.137583,0.137584 0,0.148166 -0.137583,0.148166 h -0.402167 q -0.3175,0 -0.592667,0.127 -0.275166,0.116417 -0.486833,0.328084 -0.201083,0.201083 -0.328083,0.47625 -0.116417,0.275166 -0.116417,0.592666 v 2.201334 h 1.820333 q 0.148167,0 0.148167,0.148166 0,0.137584 -0.148167,0.137584 h -1.820333 v 1.481666 q 0,0.137584 -0.148167,0.137584 -0.137583,0 -0.137583,-0.137584 v -3.439583 z"
         style="fill:#ee4b28;fill-opacity:1;stroke-width:0.2;stroke-miterlimit:4;stroke-dasharray:none"
         id="path4525"
         inkscape:connector-curvature="0" />
      <path
         d="m 41.432226,18.736278 q 0.179917,0.423333 0.5715,0.677333 0.391583,0.243417 0.836083,0.243417 h 1.9685 q 0.137583,0 0.137583,0.137583 0,0.148167 -0.137583,0.148167 h -1.9685 q -0.402167,0 -0.740833,-0.15875 -0.328083,-0.15875 -0.5715,-0.41275 -0.243417,-0.264584 -0.381,-0.613834 -0.137583,-0.34925 -0.137583,-0.73025 v -0.73025 q 0,-0.370416 0.148166,-0.6985 0.148167,-0.338666 0.391584,-0.582083 0.254,-0.254 0.582083,-0.402167 0.338666,-0.148166 0.709083,-0.148166 h 0.814917 q 0.370416,0 0.6985,0.148166 0.338666,0.148167 0.582083,0.402167 0.254,0.243417 0.402167,0.582083 0.148166,0.328084 0.148166,0.6985 v 0.740834 q 0,0.116416 -0.07408,0.1905 -0.07408,0.07408 -0.179917,0.07408 h -3.989916 z m 3.767666,-1.439334 q 0,-0.3175 -0.127,-0.592666 -0.116416,-0.28575 -0.328083,-0.497417 -0.211667,-0.211667 -0.497417,-0.328083 -0.275166,-0.127 -0.592666,-0.127 h -0.814917 q -0.306917,0 -0.592667,0.127 -0.275166,0.116416 -0.486833,0.328083 -0.211666,0.211667 -0.338666,0.497417 -0.127,0.275166 -0.127,0.592666 v 0.719667 h 3.905249 z"
         style="fill:#ee4b28;fill-opacity:1;stroke-width:0.2;stroke-miterlimit:4;stroke-dasharray:none"
         id="path4527"
         inkscape:connector-curvature="0" />
    </g>
  </g>
</svg>
