<?xml version="1.0" encoding="iso-8859-1"?>
<!-- Generator: Adobe Illustrator 19.0.0, SVG Export Plug-In . SVG Version: 6.00 Build 0)  -->
<svg version="1.1" id="Layer_1" xmlns="http://www.w3.org/2000/svg" xmlns:xlink="http://www.w3.org/1999/xlink" x="0px" y="0px"
	 viewBox="0 0 512 512" style="enable-background:new 0 0 512 512;" xml:space="preserve">
<g>
	<g>
		<path d="M448.696,38.957H63.304C28.398,38.957,0,67.355,0,102.261v307.478c0,34.906,28.398,63.304,63.304,63.304h385.391
			c34.906,0,63.304-28.398,63.304-63.304V102.261C512,67.355,483.602,38.957,448.696,38.957z M478.609,139.13h-61.217
			c-9.22,0-16.696,7.475-16.696,16.696s7.475,16.696,16.696,16.696h61.217v33.391h-61.217c-9.22,0-16.696,7.475-16.696,16.696
			s7.475,16.696,16.696,16.696h61.217v33.391h-61.217c-9.22,0-16.696,7.475-16.696,16.696s7.475,16.696,16.696,16.696h61.217v33.391
			h-61.217c-9.22,0-16.696,7.475-16.696,16.696c0,9.22,7.475,16.696,16.696,16.696h61.217v36.87
			c0,16.494-13.419,29.913-29.913,29.913H63.304c-16.494,0-29.913-13.419-29.913-29.913V102.261
			c0-16.494,13.419-29.913,29.913-29.913h385.391c16.494,0,29.913,13.419,29.913,29.913V139.13z"/>
	</g>
</g>
<g>
	<g>
		<path d="M217.043,105.739c-85.082,0-150.261,69.701-150.261,150.261c0,80.81,65.395,150.261,150.261,150.261
			c85.084,0,150.261-69.695,150.261-150.261C367.304,175.022,301.763,105.739,217.043,105.739z M150.261,339.478
			c0,4.532,0.459,8.959,1.323,13.24c-31.976-21.667-51.41-58.027-51.41-96.718c0-18.412,14.979-33.391,33.391-33.391
			c18.412,0,33.391,14.979,33.391,33.391c0,11.271,3.744,21.682,10.052,30.061C160.779,298.256,150.261,317.66,150.261,339.478z
			 M133.565,189.217c-4.519,0-8.933,0.456-13.203,1.317c21.512-31.899,57.833-51.404,96.681-51.404
			c18.412,0,33.391,14.979,33.391,33.391c0,18.412-14.979,33.391-33.391,33.391c-11.271,0-21.683,3.744-30.061,10.052
			C174.787,199.736,155.382,189.217,133.565,189.217z M233.739,256c0,9.206-7.49,16.696-16.696,16.696
			c-9.206,0-16.696-7.49-16.696-16.696c0-9.206,7.49-16.696,16.696-16.696C226.249,239.304,233.739,246.794,233.739,256z
			 M217.043,372.87c-18.412,0-33.391-14.979-33.391-33.391c0-18.412,14.979-33.391,33.391-33.391
			c11.271,0,21.683-3.744,30.061-10.052c12.196,16.229,31.6,26.748,53.417,26.748c4.52,0,8.936-0.456,13.205-1.317
			C292.214,353.363,255.893,372.87,217.043,372.87z M300.522,289.391c-18.412,0-33.391-14.979-33.391-33.391
			c0-11.271-3.744-21.682-10.052-30.061c16.229-12.194,26.748-31.599,26.748-53.417c0-4.532-0.459-8.96-1.323-13.241
			c32.047,21.713,51.41,58.11,51.41,96.719C333.913,274.412,318.934,289.391,300.522,289.391z"/>
	</g>
</g>
<g>
</g>
<g>
</g>
<g>
</g>
<g>
</g>
<g>
</g>
<g>
</g>
<g>
</g>
<g>
</g>
<g>
</g>
<g>
</g>
<g>
</g>
<g>
</g>
<g>
</g>
<g>
</g>
<g>
</g>
</svg>
